inDegrees=no
num_controls=7
num_derivatives=13
num_iterations=146
num_multipliers=7
num_parameters=0
num_slacks=7
num_states=26
objective=0.545649
objective_accelerations=0.042218
objective_balance=0.003816
objective_effort=0.040772
objective_height=0.449379
objective_ligament=0.009465
solver_duration=1848.743353
status=Solve_Succeeded
success=true
DataType=double
version=3
OpenSimVersion=4.5
endheader
time	/jointset/ground_pelvis/pelvis_tilt/value	/jointset/ground_pelvis/pelvis_tx/value	/jointset/ground_pelvis/pelvis_ty/value	/jointset/hip_r/hip_flexion_r/value	/jointset/hip_r/hip_adduction_r/value	/jointset/hip_r/hip_rotation_r/value	/jointset/back/lumbar_extension/value	/jointset/patellofemoral_r/patellar_flexion_r/value	/jointset/knee_r/knee_flexion_r/value	/jointset/knee_r/knee_adduction_r/value	/jointset/knee_r/knee_rotation_r/value	/jointset/ankle_r/ankle_angle_r/value	/jointset/subtalar_r/subtalar_angle_r/value	/jointset/ground_pelvis/pelvis_tilt/speed	/jointset/ground_pelvis/pelvis_tx/speed	/jointset/ground_pelvis/pelvis_ty/speed	/jointset/hip_r/hip_flexion_r/speed	/jointset/hip_r/hip_adduction_r/speed	/jointset/hip_r/hip_rotation_r/speed	/jointset/back/lumbar_extension/speed	/jointset/patellofemoral_r/patellar_flexion_r/speed	/jointset/knee_r/knee_flexion_r/speed	/jointset/knee_r/knee_adduction_r/speed	/jointset/knee_r/knee_rotation_r/speed	/jointset/ankle_r/ankle_angle_r/speed	/jointset/subtalar_r/subtalar_angle_r/speed	/forceset/tau_hip_flexion_r	/forceset/tau_hip_adduction_r	/forceset/tau_hip_rotation_r	/forceset/tau_knee_flexion_r	/forceset/tau_ankle_angle_r	/forceset/tau_subtalar_angle_r	/forceset/tau_lumbar_extension	lambda_cid13_p0	lambda_cid14_p0	lambda_cid14_p1	lambda_cid14_p2	lambda_cid14_p3	lambda_cid14_p4	lambda_cid14_p5	/jointset/ground_pelvis/pelvis_tilt/accel	/jointset/ground_pelvis/pelvis_tx/accel	/jointset/ground_pelvis/pelvis_ty/accel	/jointset/hip_r/hip_flexion_r/accel	/jointset/hip_r/hip_adduction_r/accel	/jointset/hip_r/hip_rotation_r/accel	/jointset/back/lumbar_extension/accel	/jointset/patellofemoral_r/patellar_flexion_r/accel	/jointset/knee_r/knee_flexion_r/accel	/jointset/knee_r/knee_adduction_r/accel	/jointset/knee_r/knee_rotation_r/accel	/jointset/ankle_r/ankle_angle_r/accel	/jointset/subtalar_r/subtalar_angle_r/accel	gamma_cid13_p0	gamma_cid14_p0	gamma_cid14_p1	gamma_cid14_p2	gamma_cid14_p3	gamma_cid14_p4	gamma_cid14_p5
0.5	-0.2207519524423084	-0.00364432414986352	0.8397547398557663	0.9059650152719901	-0.2280444032517507	-0.1317016056580495	-0.338936559868966	0.6975893036494311	0.6975893036493568	0.03624107228660182	0.1745181117853352	0.180670780755651	0.03612702402750032	-0.5934242531887395	-0.2087477447862421	-0.4064968423162243	1.956975395705812	-0.0007774115217277232	0.2660989225116452	-0.5849713820573508	1.669513343564358	1.669513343564376	-0.2789531121141276	-4.793508074761196e-05	0.3866755890876394	0.09791663684787556	-0.1541666921303897	-0.02455454418245991	0.009431255253855023	-0.31217378439479	0.1147082046964778	-0.007342350718551621	0.1883970008369402	-31.46737064699558	-5.333292662429178	0.1164615902976989	-4.400631242512314	-1.88926451154775	-667.9224301836978	61.46382977327536	0.2956245775496605	0.5196978804671435	-0.3397344613663756	-1.294883458140351	-0.03050506797137392	-0.4955987796623519	1.695507096511112	-1.230980609270172	-1.23098060927016	0.4674417834121899	-0.0004747005472756445	-0.3652957703594539	-0.08758191854791776	-1.081545932991238e-07	-1.342933333058575e-07	5.430315697669102e-07	-8.817286049847033e-07	2.632415885450069e-08	-2.179538344413623e-07	3.955118268970923e-07
0.51	-0.2266702573446771	-0.005705631427873933	0.8356737176501031	0.9254668656294751	-0.2280544623935277	-0.1290648821996287	-0.3447012794885133	0.7142203697103252	0.7142203697103467	0.03347696286952671	0.174517930729704	0.1845183526683271	0.03710061016180709	-0.5901535611918716	-0.2034983629341819	-0.4096167347074323	1.943135185875711	-0.001242691610548337	0.2612800397527799	-0.5679151704507527	1.656465842836138	1.65646584283619	-0.2738087915124083	-1.044257732959297e-05	0.3827720179243182	0.09676957563444159	-0.1618364329517475	-0.02310093093750408	0.01008035807406662	-0.314418081819451	0.1119822507395671	-0.006843619497469756	0.1948500969257312	-30.50675290692606	-6.417238950303624	0.04803146190448097	-4.280936777265979	-1.398409137495863	-672.0943675761411	61.30188718325554	0.3552551318933313	0.5298627245090023	-0.2845272379429093	-1.467528519241721	-0.05583315626082386	-0.4700446430017963	1.719283902965844	-1.376718412078003	-1.376718412073006	0.5469817913525516	0.002390792632125	-0.412917415262706	-0.1329156651967331	-8.508686436754386e-08	-5.407871063863698e-08	7.647586018199473e-07	-3.125028211571593e-07	-5.193841163615435e-08	-1.401943302926758e-07	3.81519571082673e-07
0.52	-0.2325533626028525	-0.007713984009977072	0.8315642143985388	0.9448225261338963	-0.2280694330715824	-0.126475349892591	-0.350293715849949	0.7307139440424471	0.7307139440425585	0.03076610757702466	0.1745174305124696	0.1883248829441812	0.0380617961954884	-0.5863843243494827	-0.1981568056047872	-0.4121930514964461	1.927737425093737	-0.001759718776306619	0.2566606922337887	-0.5505147304348845	1.642014997808715	1.6420149978088	-0.2683022871986596	-0.0001117674000795468	0.3784672617232271	0.09543661672278451	-0.1695061737731097	-0.02164731769253719	0.01072946089416878	-0.316662379244109	0.109256296782664	-0.006344888276361867	0.2013031930145146	-29.53982677737132	-7.504798301486947	-0.01825380171654988	-4.164757176141406	-0.9177165394947152	-676.3294973155516	61.19431323303615	0.3953335466538467	0.5381329759340379	-0.2310193409275651	-1.606393648515135	-0.04085448335891292	-0.4556917316875438	1.764352778365171	-1.511649469110703	-1.511649469110747	0.5398785258180679	-0.02823816578086695	-0.4455327779134368	-0.124761458192543	-5.233591652586942e-08	7.057662026561901e-08	1.132081027093682e-06	5.572518286986529e-07	-1.79146773341876e-07	-1.707635808944307e-08	3.92507753642093e-07
0.53	-0.2383964951188979	-0.009668445686199003	0.8274316872594517	0.9640167869981827	-0.22808915290519	-0.1239340116462159	-0.3557102915252033	0.7470562260201603	0.7470562260201313	0.02810899847601456	0.1745169514706622	0.1920867508985111	0.03900970340133184	-0.5821632284969998	-0.1927168032390064	-0.4142167073253916	1.910853072341097	-0.002193444043052698	0.2516389322254897	-0.5327480013023302	1.626215375013894	1.626215375013879	-0.2630644374992017	-5.076523700733024e-06	0.3738549639546866	0.09411666988988504	-0.1768748585030991	-0.02055130944111382	0.01131875816843169	-0.3194862727706266	0.1074198444424943	-0.005861745572932581	0.2075446017643506	-28.56718095094834	-8.311816595883585	-0.04157111182075256	-4.05613340545465	-0.6894775251861995	-680.6910993476283	61.21856564040716	0.4473497508877133	0.5496936343617016	-0.1736788361980974	-1.768694413427635	-0.04573602631213458	-0.5206148467566206	1.79069347777561	-1.64801506608165	-1.648015066096646	0.5242498713289069	0.02715282469701728	-0.4768220509901583	-0.1395065108158771	-2.953075220009208e-08	1.520816509653224e-07	1.359282697316754e-06	1.120611136047719e-06	-2.614137786877942e-07	6.248901071570441e-08	4.108707619498581e-07
0.54	-0.2441950462471523	-0.01156795538527084	0.8232817955356111	0.9830343566699812	-0.2281134308870649	-0.1214419303421901	-0.3609476278097178	0.7632337324936466	0.763233732493471	0.02550597020785868	0.1745169453596858	0.1958009471202224	0.03994363209585081	-0.5774680467908272	-0.1871664101747683	-0.4156659684471502	1.892399186596887	-0.00267134842898575	0.2468093037629691	-0.5146668522867724	1.609059896962517	1.609059896962402	-0.2574861206269736	-1.7181233331352e-05	0.3689329151995144	0.092640914457897	-0.1842435432330987	-0.01945530118968426	0.01190805544263544	-0.3223101662971446	0.1055833921023284	-0.005378602869489598	0.2137860105141755	-27.58974478099435	-9.125079413172923	-0.06556697919409842	-3.947874089682002	-0.4526350764014876	-685.150963894493	61.24421471385867	0.4901507173917231	0.5602111156255207	-0.116140399490176	-1.920300246829232	-0.04969030719630949	-0.4172654225318879	1.827236754965853	-1.782820520422145	-1.782820520422142	0.607971960372108	-0.05199728298275133	-0.5074829752397545	-0.155923178010255	-1.772943346637125e-08	1.858459239919033e-07	1.431457149185898e-06	1.344979851687189e-06	-2.939584323164825e-07	9.386852044211873e-08	4.373931519366435e-07
0.55	-0.249944372584035	-0.01341150648376729	0.8191202840318773	1.001859836342605	-0.2281424749879892	-0.1189982583882009	-0.3660026604636276	0.7792330598812758	0.7792330598812957	0.02295923634505189	0.1745168063879175	0.1994644485612342	0.04086234611738951	-0.572322064648132	-0.1815340609539177	-0.4165393298561469	1.872451031342906	-0.003139464787336688	0.2419256196289413	-0.4963012725545176	1.590589073681651	1.590589073681572	-0.25183999804783	-1.283373161338168e-05	0.3637166049171396	0.09108288820591198	-0.1915532585061789	-0.01821564790592912	0.01237982961730275	-0.3248842364114249	0.1033790234722651	-0.004892523100668072	0.2199084943058544	-26.60873517644444	-10.05529343416402	-0.109768698319142	-3.835247851930399	-0.07029035958607779	-689.5365675814513	61.20561862779799	0.5381109207109956	0.566146768929404	-0.0583614481467414	-2.068909854225621	-0.04532209944661701	-0.5237919228023126	1.846979473478791	-1.911687005771253	-1.911687005765866	0.5463115662573377	0.02659335186854959	-0.5363638665632732	-0.158188498909491	-1.069321324014914e-08	2.009059298860165e-07	1.442774224767582e-06	1.436993366336716e-06	-3.070189671417465e-07	1.088480229273837e-07	4.562548773510049e-07
